<mxfile host="app.diagrams.net" modified="2022-05-06T11:38:03.862Z" agent="5.0 (Windows NT 10.0; Win64; x64) AppleWebKit/537.36 (KHTML, like Gecko) Chrome/100.0.4896.127 Safari/537.36" etag="yugUQbCwRfGT3kQsQ3RG" version="18.0.1" type="github">
  <diagram name="Page-1" id="c4acf3e9-155e-7222-9cf6-157b1a14988f">
    <mxGraphModel dx="1038" dy="547" grid="1" gridSize="10" guides="1" tooltips="1" connect="1" arrows="1" fold="1" page="1" pageScale="1" pageWidth="850" pageHeight="1100" background="none" math="0" shadow="0">
      <root>
        <mxCell id="0" />
        <mxCell id="1" parent="0" />
        <mxCell id="GYFcjoXbqKIcz_kQuy-1-1" value="Actor" style="shape=umlActor;verticalLabelPosition=bottom;verticalAlign=top;html=1;outlineConnect=0;" parent="1" vertex="1">
          <mxGeometry x="60" y="250" width="30" height="60" as="geometry" />
        </mxCell>
        <mxCell id="GYFcjoXbqKIcz_kQuy-1-25" style="edgeStyle=orthogonalEdgeStyle;rounded=0;orthogonalLoop=1;jettySize=auto;html=1;entryX=0;entryY=0.5;entryDx=0;entryDy=0;" parent="1" source="GYFcjoXbqKIcz_kQuy-1-2" target="GYFcjoXbqKIcz_kQuy-1-23" edge="1">
          <mxGeometry relative="1" as="geometry" />
        </mxCell>
        <mxCell id="GYFcjoXbqKIcz_kQuy-1-2" value="Profil(login)" style="ellipse;whiteSpace=wrap;html=1;" parent="1" vertex="1">
          <mxGeometry x="140" y="240" width="120" height="80" as="geometry" />
        </mxCell>
        <mxCell id="GYFcjoXbqKIcz_kQuy-1-3" value="" style="endArrow=none;html=1;rounded=0;entryX=0;entryY=0.5;entryDx=0;entryDy=0;" parent="1" source="GYFcjoXbqKIcz_kQuy-1-1" target="GYFcjoXbqKIcz_kQuy-1-2" edge="1">
          <mxGeometry width="50" height="50" relative="1" as="geometry">
            <mxPoint x="100" y="290" as="sourcePoint" />
            <mxPoint x="270" y="280" as="targetPoint" />
          </mxGeometry>
        </mxCell>
        <mxCell id="GYFcjoXbqKIcz_kQuy-1-5" value="Meal" style="swimlane;fontStyle=0;childLayout=stackLayout;horizontal=1;startSize=30;horizontalStack=0;resizeParent=1;resizeParentMax=0;resizeLast=0;collapsible=1;marginBottom=0;" parent="1" vertex="1">
          <mxGeometry x="215" y="520" width="150" height="260" as="geometry">
            <mxRectangle x="200" y="490" width="60" height="30" as="alternateBounds" />
          </mxGeometry>
        </mxCell>
        <mxCell id="GYFcjoXbqKIcz_kQuy-1-6" value="MealID" style="text;strokeColor=none;fillColor=none;align=left;verticalAlign=middle;spacingLeft=4;spacingRight=4;overflow=hidden;points=[[0,0.5],[1,0.5]];portConstraint=eastwest;rotatable=0;" parent="GYFcjoXbqKIcz_kQuy-1-5" vertex="1">
          <mxGeometry y="30" width="150" height="30" as="geometry" />
        </mxCell>
        <mxCell id="GYFcjoXbqKIcz_kQuy-1-8" value="Array de (Food items)&#xa;" style="text;strokeColor=none;fillColor=none;align=left;verticalAlign=middle;spacingLeft=4;spacingRight=4;overflow=hidden;points=[[0,0.5],[1,0.5]];portConstraint=eastwest;rotatable=0;" parent="GYFcjoXbqKIcz_kQuy-1-5" vertex="1">
          <mxGeometry y="60" width="150" height="40" as="geometry" />
        </mxCell>
        <mxCell id="GYFcjoXbqKIcz_kQuy-1-16" value="Calorii totale" style="text;strokeColor=none;fillColor=none;align=left;verticalAlign=middle;spacingLeft=4;spacingRight=4;overflow=hidden;points=[[0,0.5],[1,0.5]];portConstraint=eastwest;rotatable=0;" parent="GYFcjoXbqKIcz_kQuy-1-5" vertex="1">
          <mxGeometry y="100" width="150" height="40" as="geometry" />
        </mxCell>
        <mxCell id="GYFcjoXbqKIcz_kQuy-1-15" style="text;strokeColor=none;fillColor=none;align=left;verticalAlign=middle;spacingLeft=4;spacingRight=4;overflow=hidden;points=[[0,0.5],[1,0.5]];portConstraint=eastwest;rotatable=0;" parent="GYFcjoXbqKIcz_kQuy-1-5" vertex="1">
          <mxGeometry y="140" width="150" height="40" as="geometry" />
        </mxCell>
        <mxCell id="GYFcjoXbqKIcz_kQuy-1-14" style="text;strokeColor=none;fillColor=none;align=left;verticalAlign=middle;spacingLeft=4;spacingRight=4;overflow=hidden;points=[[0,0.5],[1,0.5]];portConstraint=eastwest;rotatable=0;" parent="GYFcjoXbqKIcz_kQuy-1-5" vertex="1">
          <mxGeometry y="180" width="150" height="40" as="geometry" />
        </mxCell>
        <mxCell id="GYFcjoXbqKIcz_kQuy-1-13" style="text;strokeColor=none;fillColor=none;align=left;verticalAlign=middle;spacingLeft=4;spacingRight=4;overflow=hidden;points=[[0,0.5],[1,0.5]];portConstraint=eastwest;rotatable=0;" parent="GYFcjoXbqKIcz_kQuy-1-5" vertex="1">
          <mxGeometry y="220" width="150" height="40" as="geometry" />
        </mxCell>
        <mxCell id="GYFcjoXbqKIcz_kQuy-1-17" style="edgeStyle=orthogonalEdgeStyle;rounded=0;orthogonalLoop=1;jettySize=auto;html=1;exitX=1;exitY=0.5;exitDx=0;exitDy=0;" parent="1" source="GYFcjoXbqKIcz_kQuy-1-8" edge="1">
          <mxGeometry relative="1" as="geometry">
            <mxPoint x="420" y="590" as="targetPoint" />
          </mxGeometry>
        </mxCell>
        <mxCell id="GYFcjoXbqKIcz_kQuy-1-18" value="Food item" style="swimlane;fontStyle=0;childLayout=stackLayout;horizontal=1;startSize=30;horizontalStack=0;resizeParent=1;resizeParentMax=0;resizeLast=0;collapsible=1;marginBottom=0;" parent="1" vertex="1">
          <mxGeometry x="400" y="590" width="140" height="120" as="geometry" />
        </mxCell>
        <mxCell id="GYFcjoXbqKIcz_kQuy-1-19" value="FoodID" style="text;strokeColor=none;fillColor=none;align=left;verticalAlign=middle;spacingLeft=4;spacingRight=4;overflow=hidden;points=[[0,0.5],[1,0.5]];portConstraint=eastwest;rotatable=0;" parent="GYFcjoXbqKIcz_kQuy-1-18" vertex="1">
          <mxGeometry y="30" width="140" height="30" as="geometry" />
        </mxCell>
        <mxCell id="GYFcjoXbqKIcz_kQuy-1-20" value="Descriere" style="text;strokeColor=none;fillColor=none;align=left;verticalAlign=middle;spacingLeft=4;spacingRight=4;overflow=hidden;points=[[0,0.5],[1,0.5]];portConstraint=eastwest;rotatable=0;" parent="GYFcjoXbqKIcz_kQuy-1-18" vertex="1">
          <mxGeometry y="60" width="140" height="30" as="geometry" />
        </mxCell>
        <mxCell id="GYFcjoXbqKIcz_kQuy-1-21" value="Calories_Amount" style="text;strokeColor=none;fillColor=none;align=left;verticalAlign=middle;spacingLeft=4;spacingRight=4;overflow=hidden;points=[[0,0.5],[1,0.5]];portConstraint=eastwest;rotatable=0;" parent="GYFcjoXbqKIcz_kQuy-1-18" vertex="1">
          <mxGeometry y="90" width="140" height="30" as="geometry" />
        </mxCell>
        <mxCell id="GYFcjoXbqKIcz_kQuy-1-28" style="edgeStyle=orthogonalEdgeStyle;rounded=0;orthogonalLoop=1;jettySize=auto;html=1;exitX=0.5;exitY=0;exitDx=0;exitDy=0;entryX=0;entryY=0.5;entryDx=0;entryDy=0;" parent="1" source="GYFcjoXbqKIcz_kQuy-1-23" target="GYFcjoXbqKIcz_kQuy-1-26" edge="1">
          <mxGeometry relative="1" as="geometry" />
        </mxCell>
        <mxCell id="GYFcjoXbqKIcz_kQuy-1-23" value="Creare Meal" style="ellipse;whiteSpace=wrap;html=1;" parent="1" vertex="1">
          <mxGeometry x="310" y="240" width="120" height="80" as="geometry" />
        </mxCell>
        <mxCell id="GYFcjoXbqKIcz_kQuy-1-26" value="Adaugare aliment" style="ellipse;whiteSpace=wrap;html=1;" parent="1" vertex="1">
          <mxGeometry x="430" y="160" width="120" height="80" as="geometry" />
        </mxCell>
        <mxCell id="GYFcjoXbqKIcz_kQuy-1-29" value="Istoric alimentatie zile" style="ellipse;whiteSpace=wrap;html=1;" parent="1" vertex="1">
          <mxGeometry x="305" y="360" width="120" height="80" as="geometry" />
        </mxCell>
        <mxCell id="GYFcjoXbqKIcz_kQuy-1-31" value="" style="endArrow=classic;html=1;rounded=0;entryX=-0.008;entryY=0.425;entryDx=0;entryDy=0;entryPerimeter=0;exitX=1;exitY=1;exitDx=0;exitDy=0;" parent="1" source="GYFcjoXbqKIcz_kQuy-1-2" target="GYFcjoXbqKIcz_kQuy-1-29" edge="1">
          <mxGeometry width="50" height="50" relative="1" as="geometry">
            <mxPoint x="230" y="360" as="sourcePoint" />
            <mxPoint x="280" y="310" as="targetPoint" />
          </mxGeometry>
        </mxCell>
        <mxCell id="GYFcjoXbqKIcz_kQuy-1-32" value="Baza de date" style="rounded=0;whiteSpace=wrap;html=1;" parent="1" vertex="1">
          <mxGeometry x="230" y="120" width="120" height="60" as="geometry" />
        </mxCell>
        <mxCell id="GYFcjoXbqKIcz_kQuy-1-33" value="" style="endArrow=classic;startArrow=classic;html=1;rounded=0;entryX=0.5;entryY=1;entryDx=0;entryDy=0;exitX=0.5;exitY=0;exitDx=0;exitDy=0;" parent="1" source="GYFcjoXbqKIcz_kQuy-1-2" target="GYFcjoXbqKIcz_kQuy-1-32" edge="1">
          <mxGeometry width="50" height="50" relative="1" as="geometry">
            <mxPoint x="220" y="340" as="sourcePoint" />
            <mxPoint x="270" y="290" as="targetPoint" />
          </mxGeometry>
        </mxCell>
        <mxCell id="GYFcjoXbqKIcz_kQuy-1-34" value="" style="endArrow=classic;startArrow=classic;html=1;rounded=0;exitX=1;exitY=0.5;exitDx=0;exitDy=0;" parent="1" source="GYFcjoXbqKIcz_kQuy-1-32" target="GYFcjoXbqKIcz_kQuy-1-26" edge="1">
          <mxGeometry width="50" height="50" relative="1" as="geometry">
            <mxPoint x="340" y="210" as="sourcePoint" />
            <mxPoint x="420" y="150" as="targetPoint" />
          </mxGeometry>
        </mxCell>
        <mxCell id="orVPV2FX87FC5UHv3PtX-8" value="Users" style="swimlane;fontStyle=0;childLayout=stackLayout;horizontal=1;startSize=30;horizontalStack=0;resizeParent=1;resizeParentMax=0;resizeLast=0;collapsible=1;marginBottom=0;" vertex="1" parent="1">
          <mxGeometry x="30" y="500" width="150" height="220" as="geometry">
            <mxRectangle x="200" y="490" width="60" height="30" as="alternateBounds" />
          </mxGeometry>
        </mxCell>
        <mxCell id="orVPV2FX87FC5UHv3PtX-9" value="ID" style="text;strokeColor=none;fillColor=none;align=left;verticalAlign=middle;spacingLeft=4;spacingRight=4;overflow=hidden;points=[[0,0.5],[1,0.5]];portConstraint=eastwest;rotatable=0;" vertex="1" parent="orVPV2FX87FC5UHv3PtX-8">
          <mxGeometry y="30" width="150" height="30" as="geometry" />
        </mxCell>
        <mxCell id="orVPV2FX87FC5UHv3PtX-10" value="Username&#xa;" style="text;strokeColor=none;fillColor=none;align=left;verticalAlign=middle;spacingLeft=4;spacingRight=4;overflow=hidden;points=[[0,0.5],[1,0.5]];portConstraint=eastwest;rotatable=0;" vertex="1" parent="orVPV2FX87FC5UHv3PtX-8">
          <mxGeometry y="60" width="150" height="40" as="geometry" />
        </mxCell>
        <mxCell id="orVPV2FX87FC5UHv3PtX-12" value="Meals" style="text;strokeColor=none;fillColor=none;align=left;verticalAlign=middle;spacingLeft=4;spacingRight=4;overflow=hidden;points=[[0,0.5],[1,0.5]];portConstraint=eastwest;rotatable=0;" vertex="1" parent="orVPV2FX87FC5UHv3PtX-8">
          <mxGeometry y="100" width="150" height="40" as="geometry" />
        </mxCell>
        <mxCell id="orVPV2FX87FC5UHv3PtX-13" style="text;strokeColor=none;fillColor=none;align=left;verticalAlign=middle;spacingLeft=4;spacingRight=4;overflow=hidden;points=[[0,0.5],[1,0.5]];portConstraint=eastwest;rotatable=0;" vertex="1" parent="orVPV2FX87FC5UHv3PtX-8">
          <mxGeometry y="140" width="150" height="40" as="geometry" />
        </mxCell>
        <mxCell id="orVPV2FX87FC5UHv3PtX-14" style="text;strokeColor=none;fillColor=none;align=left;verticalAlign=middle;spacingLeft=4;spacingRight=4;overflow=hidden;points=[[0,0.5],[1,0.5]];portConstraint=eastwest;rotatable=0;" vertex="1" parent="orVPV2FX87FC5UHv3PtX-8">
          <mxGeometry y="180" width="150" height="40" as="geometry" />
        </mxCell>
        <mxCell id="orVPV2FX87FC5UHv3PtX-15" value="" style="endArrow=classic;html=1;rounded=0;entryX=-0.001;entryY=0.048;entryDx=0;entryDy=0;entryPerimeter=0;exitX=0.981;exitY=0.175;exitDx=0;exitDy=0;exitPerimeter=0;" edge="1" parent="1" source="orVPV2FX87FC5UHv3PtX-12" target="GYFcjoXbqKIcz_kQuy-1-5">
          <mxGeometry width="50" height="50" relative="1" as="geometry">
            <mxPoint x="180" y="560" as="sourcePoint" />
            <mxPoint x="230" y="500" as="targetPoint" />
          </mxGeometry>
        </mxCell>
        <mxCell id="orVPV2FX87FC5UHv3PtX-17" value="Builder la Meals&lt;br&gt;" style="ellipse;whiteSpace=wrap;html=1;" vertex="1" parent="1">
          <mxGeometry x="410" y="470" width="120" height="80" as="geometry" />
        </mxCell>
        <mxCell id="orVPV2FX87FC5UHv3PtX-18" value="" style="shape=flexArrow;endArrow=classic;html=1;rounded=0;entryX=0.959;entryY=0.012;entryDx=0;entryDy=0;entryPerimeter=0;exitX=0;exitY=0.5;exitDx=0;exitDy=0;" edge="1" parent="1" source="orVPV2FX87FC5UHv3PtX-17" target="GYFcjoXbqKIcz_kQuy-1-5">
          <mxGeometry width="50" height="50" relative="1" as="geometry">
            <mxPoint x="380" y="540" as="sourcePoint" />
            <mxPoint x="430" y="490" as="targetPoint" />
          </mxGeometry>
        </mxCell>
        <mxCell id="orVPV2FX87FC5UHv3PtX-21" value="Singleton la Food Items" style="ellipse;whiteSpace=wrap;html=1;" vertex="1" parent="1">
          <mxGeometry x="591.15" y="540" width="120" height="80" as="geometry" />
        </mxCell>
        <mxCell id="orVPV2FX87FC5UHv3PtX-22" value="" style="shape=flexArrow;endArrow=classic;html=1;rounded=0;entryX=0.959;entryY=0.012;entryDx=0;entryDy=0;entryPerimeter=0;exitX=0;exitY=0.5;exitDx=0;exitDy=0;" edge="1" parent="1" source="orVPV2FX87FC5UHv3PtX-21">
          <mxGeometry width="50" height="50" relative="1" as="geometry">
            <mxPoint x="561.15" y="610" as="sourcePoint" />
            <mxPoint x="539.9999999999999" y="593.1199999999999" as="targetPoint" />
          </mxGeometry>
        </mxCell>
      </root>
    </mxGraphModel>
  </diagram>
</mxfile>
